# xmcd
#
# Track frame offsets:
#	150
#	17795
#	32992
#	48992
#	62727
#	87980
#	102972
#	116827
#	127985
#	145287
#	166275
#	194047
#
# Disc length: 2766 seconds
#
# Revision: 2
# Processed by: cddbd v1.4PL0 Copyright (c) Steve Scherf et al.
# Submitted via: CDmax 2.0
#
DISCID=ac0acc0c
DTITLE=Nace Brothers - There Comes A Time
DYEAR=1992
DGENRE=Blues
TTITLE0=Face to Face
TTITLE1=Rich Daddy Blues
TTITLE2=Still Reachin'
TTITLE3=Walkin' The Street
TTITLE4=There Comes a Time
TTITLE5=Life Goes on
TTITLE6=Don't Wanna See You No More
TTITLE7=Long Gone
TTITLE8=Time Will Tell
TTITLE9=All Right Tonight
TTITLE10=Rock Bottom
TTITLE11=I Guess
EXTD=
EXTT0=
EXTT1=
EXTT2=
EXTT3=
EXTT4=
EXTT5=
EXTT6=
EXTT7=
EXTT8=
EXTT9=
EXTT10=
EXTT11=
PLAYORDER=
